<?xml version="1.0" encoding="UTF-8" standalone="no"?>
<!DOCTYPE svg PUBLIC "-//W3C//DTD SVG 1.1//EN" "http://www.w3.org/Graphics/SVG/1.1/DTD/svg11.dtd">
<svg width="100%" height="100%" viewBox="0 0 512 512" version="1.1" xmlns="http://www.w3.org/2000/svg" xmlns:xlink="http://www.w3.org/1999/xlink" xml:space="preserve" xmlns:serif="http://www.serif.com/" style="fill-rule:evenodd;clip-rule:evenodd;stroke-linejoin:round;stroke-miterlimit:1.41421;">
    <path d="M-58.652,447.829C-65.435,426.093 -82.839,188.774 -82.839,164.817C-82.839,37.318 -16.957,-85.01 110.541,-85.01C165.424,-85.01 486.517,-32.017 526.167,0C504.164,14.696 530.958,21.959 522.417,52.961C509.014,101.612 314.46,269.415 105.565,308.733C-13.868,331.212 -39.825,440.415 -58.652,447.829Z" style="fill:white;fill-opacity:0.09;"/>
    <path d="M8.878,535.952L249.964,398.755L249.961,398.752C247.119,373.726 259.114,347.916 281.95,334.926C300.993,324.082 323.066,324.715 340.569,334.565L329.556,340.827L317.822,347.519L295.039,360.493L293.097,399.891L309.391,409.759L325.687,419.614L342.955,409.807L348.483,406.656L371.228,393.701C369.576,414.458 358.067,434.189 339.038,445.039C316.189,458.025 289.004,454.538 270.539,438.43L53.376,562.042C34.621,557.192 25.472,545.081 8.878,535.952ZM559.418,21.308C583.378,47.084 613.183,71.604 623.426,106.233L218.567,339.979C211.488,344.066 202.423,341.637 198.336,334.558L160.371,268.799C156.284,261.721 158.713,252.656 165.791,248.569L559.418,21.308ZM413.316,-46.673C458.534,-40.824 530.07,-39.431 563.19,-11.323L152.605,225.729C145.526,229.816 136.461,227.387 132.374,220.308L94.408,154.549C90.321,147.471 92.75,138.406 99.829,134.319L413.316,-46.673Z" style="fill:white;fill-rule:nonzero;"/>
    <path d="M540.577,62.746C544.39,67.939 558.075,67.476 561.452,72.987L206.769,277.763C202.155,280.427 196.246,278.844 193.583,274.23C190.919,269.616 192.502,263.708 197.116,261.044L437.74,122.119L540.577,62.746ZM437.74,-30.214C445.775,-27.727 440.166,-17.044 447.8,-13.73L140.806,163.513C136.193,166.177 130.284,164.594 127.62,159.98C124.956,155.366 126.54,149.457 131.153,146.794L437.74,-30.214Z" style="fill-opacity:0.36;"/>
    <path d="M436.447,172.48C433.783,167.866 427.875,166.283 423.261,168.946L213.773,289.894C209.159,292.558 207.576,298.467 210.239,303.08C212.903,307.694 218.812,309.277 223.426,306.614L432.914,185.666C437.527,183.002 439.111,177.093 436.447,172.48ZM275.806,114.461C273.142,109.847 267.234,108.264 262.62,110.928L147.81,175.644C143.197,178.308 141.613,184.216 144.277,188.83C146.941,193.444 152.849,195.027 157.463,192.363L272.273,127.647C276.886,124.983 278.47,119.075 275.806,114.461Z" style="fill-opacity:0.19;"/>
</svg>
