<?xml version="1.0" encoding="UTF-8" standalone="no"?>
<!DOCTYPE svg PUBLIC "-//W3C//DTD SVG 1.1//EN" "http://www.w3.org/Graphics/SVG/1.1/DTD/svg11.dtd">
<svg width="100%" height="100%" viewBox="0 0 512 512" version="1.1" xmlns="http://www.w3.org/2000/svg" xmlns:xlink="http://www.w3.org/1999/xlink" xml:space="preserve" xmlns:serif="http://www.serif.com/" style="fill-rule:evenodd;clip-rule:evenodd;stroke-linejoin:round;stroke-miterlimit:1.41421;">
    <path d="M35.425,324.804C28.643,303.068 24.988,279.957 24.988,256C24.988,128.501 128.501,24.988 256,24.988C310.883,24.988 361.321,44.169 400.972,76.186C378.969,90.882 364.513,114.589 355.972,145.591C342.569,194.243 316.986,286.728 105.565,308.733C77.315,311.673 54.252,317.391 35.425,324.804Z" style="fill:white;fill-opacity:0.09;"/>
    <path d="M144.893,458.549L249.964,398.755L249.961,398.752C247.119,373.726 259.114,347.916 281.95,334.926C300.993,324.082 323.066,324.715 340.569,334.565L329.556,340.827L317.822,347.519L295.039,360.493L293.097,399.891L309.391,409.759L325.687,419.614L342.955,409.807L348.483,406.656L371.228,393.701C369.576,414.458 358.067,434.189 339.038,445.039C316.189,458.025 289.004,454.538 270.539,438.43L198.076,479.677C179.321,474.827 161.487,467.678 144.893,458.549ZM425.21,98.793C449.17,124.569 467.319,155.818 477.563,190.448L218.567,339.979C211.488,344.066 202.423,341.637 198.336,334.558L160.371,268.799C156.284,261.721 158.713,252.656 165.791,248.569L425.21,98.793ZM285.873,26.906C331.091,32.755 372.227,51.7 405.347,79.808L152.605,225.729C145.526,229.816 136.461,227.387 132.374,220.308L94.408,154.549C90.321,147.471 92.75,138.406 99.829,134.319L285.873,26.906Z" style="fill:white;fill-rule:nonzero;"/>
    <path d="M442.32,119.475C446.133,124.668 449.735,130.026 453.112,135.537L206.769,277.763C202.155,280.427 196.246,278.844 193.583,274.23C190.919,269.616 192.502,263.708 197.116,261.044L442.32,119.475ZM324.313,35.273C332.348,37.76 340.195,40.674 347.829,43.988L140.806,163.513C136.193,166.177 130.284,164.594 127.62,159.98C124.956,155.366 126.54,149.457 131.153,146.794L324.313,35.273Z" style="fill:rgb(103,58,183);"/>
    <path d="M436.447,172.48C433.783,167.866 427.875,166.283 423.261,168.946L213.773,289.894C209.159,292.558 207.576,298.467 210.239,303.08C212.903,307.694 218.812,309.277 223.426,306.614L432.914,185.666C437.527,183.002 439.111,177.093 436.447,172.48ZM304.174,96.514C301.51,91.9 295.602,90.317 290.988,92.981L147.81,175.644C143.197,178.308 141.613,184.216 144.277,188.83C146.941,193.444 152.849,195.027 157.463,192.363L300.641,109.7C305.255,107.036 306.838,101.128 304.174,96.514Z" style="fill:rgb(166,139,215);"/>
</svg>
